<?xml version="1.0" encoding="UTF-8"?>
<svg width="545px" height="356px" viewBox="0 0 545 356" version="1.1" xmlns="http://www.w3.org/2000/svg" xmlns:xlink="http://www.w3.org/1999/xlink">
    <!-- Generator: Sketch 42 (36781) - http://www.bohemiancoding.com/sketch -->
    <title>Page 1</title>
    <desc>Created with Sketch.</desc>
    <defs>
        <polygon id="path-1" points="311.961784 0 232.656443 0 232.656443 45.8898633 311.961784 45.8898633 311.961784 8.97060204e-14"></polygon>
    </defs>
    <g id="Page-1" stroke="none" stroke-width="1" fill="none" fill-rule="evenodd" opacity="0.0796037138">
        <g id="solutions_landing" transform="translate(-887.000000, -120.000000)">
            <g id="BANNER" transform="translate(0.000000, 96.000000)">
                <g id="Page-1" transform="translate(887.000000, 24.000000)">
                    <path d="M76.3518145,158.601405 L47.3120029,175.460514 C43.2158145,177.838748 36.5604957,177.834014 32.443771,175.460514 L32.443771,175.460514 L3.20649565,158.59667 C1.13391594,157.40203 0.097626087,155.831795 0.102365217,154.264717 L-0.000315942029,190.220717 C-0.00505507246,191.789373 1.03123478,193.35803 3.10381449,194.554248 L32.3410899,211.416514 C36.4578145,213.791592 43.1131333,213.794748 47.2093217,211.416514 L76.250713,194.557405 C78.2838,193.376967 79.3011333,191.831983 79.3058725,190.286998 L79.4085536,154.32942 C79.4038145,155.875983 78.3864812,157.420967 76.3518145,158.601405" id="Fill-1" fill="#536D79"></path>
                    <path d="M76.3034754,149.997783 C80.4186203,152.371283 80.4486348,156.223486 76.3524464,158.60172 L47.3126348,175.46083 C43.2148667,177.839064 36.5595478,177.83433 32.4444029,175.46083 L3.20554783,158.596986 C-0.909597101,156.223486 -0.939611594,152.371283 3.15815652,149.993048 L32.1963884,133.133939 C36.2941565,130.755705 42.9494754,130.760439 47.0662,133.133939 L76.3034754,149.997783 Z" id="Fill-4" fill="#536D79"></path>
                    <path d="M65.0118652,185.551519 L149.783851,233.859503" id="Stroke-7" stroke="#536D79" stroke-width="4"></path>
                    <path d="M64.9949623,179.49357 C62.0803971,181.174273 59.7282087,185.245836 59.737687,188.591461 C59.7471652,191.937086 62.1151507,193.284805 65.0297159,191.604102 C67.9442812,189.923398 70.2964696,185.851836 70.2869913,182.506211 C70.277513,179.160586 67.9095275,177.812867 64.9949623,179.49357" id="Fill-8" fill="#536D79"></path>
                    <path d="M163.896033,110.194156 L163.80362,142.554556 C159.707432,144.932791 153.052113,144.928056 148.935388,142.554556 L119.697639,125.691186 C117.626639,124.496545 116.58877,122.926311 116.593509,121.359233 L116.69619,85.4032328 C116.691451,86.9703109 117.727741,88.5405453 119.80032,89.7351859 L149.037596,106.59903 L149.007352,117.355056 L149.03807,106.598556 C153.153162,108.972026 159.808362,108.976791 163.906143,106.598648 L192.945955,89.7394469 C194.980622,88.5590094 195.997955,87.014025 196.001114,85.4674625 L195.900013,121.425041 C195.895274,122.970025 194.877941,124.515009 192.843274,125.695447 L163.805042,142.554556 L163.896033,110.194156 Z" id="Combined-Shape" fill="#536D79"></path>
                    <path d="M192.897616,81.135825 C197.012761,83.509325 197.042775,87.3615281 192.946587,89.7397625 L163.906775,106.598872 C159.809007,108.977106 153.153688,108.972372 149.038543,106.598872 L119.799688,89.7350281 C115.684543,87.3615281 115.654529,83.509325 119.752297,81.1310906 L148.790529,64.2719813 C152.888297,61.8937469 159.543616,61.8984813 163.660341,64.2719813 L192.897616,81.135825 Z" id="Fill-16" fill="#536D79"></path>
                    <path d="M163.896033,239.866952 L163.80362,272.227352 C159.707432,274.605586 153.052113,274.600852 148.935388,272.227352 L119.697639,255.363981 C117.626639,254.169341 116.58877,252.599106 116.593509,251.032028 L116.69619,215.076028 C116.691451,216.643106 117.727741,218.213341 119.80032,219.407981 L149.037596,236.271825 L149.007352,247.027852 L149.03807,236.271352 C153.153162,238.644821 159.808362,238.649586 163.906143,236.271443 L192.945955,219.412242 C194.980622,218.231805 195.997955,216.68682 196.001114,215.140258 L195.900013,251.097836 C195.895274,252.64282 194.877941,254.187805 192.843274,255.368242 L163.805042,272.227352 L163.896033,239.866952 Z" id="Combined-Shape" fill="#536D79"></path>
                    <path d="M192.897616,210.80862 C197.012761,213.18212 197.042775,217.034323 192.946587,219.412558 L163.906775,236.271667 C159.809007,238.649902 153.153688,238.645167 149.038543,236.271667 L119.799688,219.407823 C115.684543,217.034323 115.654529,213.18212 119.752297,210.803886 L148.790529,193.944777 C152.888297,191.566542 159.543616,191.571277 163.660341,193.944777 L192.897616,210.80862 Z" id="Fill-25" fill="#536D79"></path>
                    <path d="M396.181352,110.194156 L396.088939,142.554556 C391.992751,144.932791 385.337432,144.928056 381.220707,142.554556 L351.982958,125.691186 C349.911958,124.496545 348.874088,122.926311 348.878828,121.359233 L348.981509,85.4032328 C348.97677,86.9703109 350.013059,88.5405453 352.085639,89.7351859 L381.322914,106.59903 L381.292671,117.355056 L381.323388,106.598556 C385.43848,108.972026 392.093681,108.976791 396.191462,106.598648 L425.231274,89.7394469 C427.265941,88.5590094 428.283274,87.014025 428.286433,85.4674625 L428.185332,121.425041 C428.180593,122.970025 427.163259,124.515009 425.128593,125.695447 L396.090361,142.554556 L396.181352,110.194156 Z" id="Combined-Shape" fill="#536D79"></path>
                    <path d="M425.182935,81.135825 C429.29808,83.509325 429.328094,87.3615281 425.231906,89.7397625 L396.192094,106.598872 C392.094326,108.977106 385.439007,108.972372 381.323862,106.598872 L352.085007,89.7350281 C347.969862,87.3615281 347.939848,83.509325 352.037616,81.1310906 L381.075848,64.2719813 C385.173616,61.8937469 391.828935,61.8984813 395.945659,64.2719813 L425.182935,81.135825 Z" id="Fill-34" fill="#536D79"></path>
                    <path d="M396.181352,370.059423 L396.088939,402.419823 C391.992751,404.798058 385.337432,404.793323 381.220707,402.419823 L351.982958,385.556453 C349.911958,384.361813 348.874088,382.791578 348.878828,381.2245 L348.981509,345.2685 C348.97677,346.835578 350.013059,348.405813 352.085639,349.600453 L381.322914,366.464297 L381.292671,377.220323 L381.323388,366.463823 C385.43848,368.837293 392.093681,368.842058 396.191462,366.463915 L425.231274,349.604714 C427.265941,348.424277 428.283274,346.879292 428.286433,345.33273 L428.185332,381.290308 C428.180593,382.835292 427.163259,384.380277 425.128593,385.560714 L396.090361,402.419823 L396.181352,370.059423 Z" id="Combined-Shape" fill="#536D79"></path>
                    <path d="M425.182935,341.000934 C429.29808,343.374434 429.328094,347.226638 425.231906,349.604872 L396.192094,366.463981 C392.094326,368.842216 385.439007,368.837481 381.323862,366.463981 L352.085007,349.600138 C347.969862,347.226638 347.939848,343.374434 352.037616,340.9962 L381.075848,324.137091 C385.173616,321.758856 391.828935,321.763591 395.945659,324.137091 L425.182935,341.000934 Z" id="Fill-43" fill="#536D79"></path>
                    <path d="M366.066232,109.759067 C363.151667,108.078364 360.783681,109.426083 360.774203,112.771708 C360.764725,116.117333 363.116913,120.188895 366.031478,121.869598 C368.936565,123.545567 371.304551,122.19627 371.314029,118.850645 C371.323507,115.50502 368.971319,111.435036 366.066232,109.759067" id="Fill-46" fill="#536D79"></path>
                    <path d="M366.044116,116.080405 L281.27213,164.388389" id="Stroke-49" stroke="#536D79" stroke-width="4"></path>
                    <path d="M179.314162,116.564416 L264.086148,164.8724" id="Stroke-50" stroke="#536D79" stroke-width="4"></path>
                    <path d="M179.300735,110.505994 C176.38617,112.186697 174.033981,116.258259 174.043459,119.603884 C174.052938,122.949509 176.420923,124.297228 179.335488,122.616525 C182.240575,120.940556 184.592764,116.870572 184.583286,113.524947 C184.573807,110.179322 182.205822,108.830025 179.300735,110.505994" id="Fill-51" fill="#536D79"></path>
                    <path d="M308.906316,293.324989 L279.866504,310.184098 C275.768736,312.562333 269.113417,312.557598 264.998272,310.184098 L235.760997,293.320255 C233.688417,292.125614 232.652128,290.55538 232.656867,288.988302 L232.554186,324.944302 C232.549446,326.512958 233.585736,328.081614 235.658316,329.277833 L264.895591,346.140098 C269.012316,348.515177 275.667635,348.518333 279.763823,346.140098 L308.805214,329.280989 C310.838301,328.100552 311.855635,326.555567 311.860374,325.010583 L311.961475,289.053005 C311.956736,290.599567 310.940983,292.144552 308.906316,293.324989" id="Fill-67" fill="#536D79"></path>
                    <path d="M308.857977,284.721367 C312.973122,287.094867 313.003136,290.94707 308.906948,293.325305 L279.867136,310.184414 C275.769368,312.562648 269.114049,312.557914 264.998904,310.184414 L235.760049,293.32057 C231.644904,290.94707 231.61489,287.094867 235.712658,284.716633 L264.75089,267.857523 C268.848658,265.479289 275.503977,265.484023 279.620701,267.857523 L308.857977,284.721367 Z" id="Fill-69" fill="#536D79"></path>
                    <path d="M541.461133,157.323281 L512.421322,174.182391 L512.421322,174.182391 C508.323554,176.560625 501.668235,176.555891 497.55309,174.182391 L468.315814,157.318547 C466.243235,156.123906 465.206945,154.553672 465.210104,152.986594 L465.109003,188.942594 C465.104264,190.51125 466.140554,192.079906 468.213133,193.276125 L497.450409,210.138391 C501.567133,212.511891 508.222452,212.516625 512.318641,210.138391 L512.370771,210.138391 L512.318641,210.138391 L541.358452,193.279281 C543.393119,192.098844 544.410452,190.553859 544.415191,189.008875 L544.516293,153.051297 C544.511554,154.597859 543.4958,156.142844 541.461133,157.323281" id="Fill-71" fill="#536D79"></path>
                    <path d="M541.412636,148.719502 C545.527781,151.093002 545.557796,154.945205 541.461607,157.323439 L512.421796,174.182548 C508.324028,176.560783 501.668709,176.556048 497.553564,174.182548 L468.314709,157.318705 C464.199564,154.945205 464.169549,151.093002 468.267317,148.714767 L497.305549,131.855658 C501.403317,129.477423 508.058636,129.482158 512.175361,131.855658 L541.412636,148.719502 Z" id="Fill-73" fill="#536D79"></path>
                    <path d="M277.499625,286.245836 C274.585059,284.565133 269.880683,284.565133 266.983494,286.245836 C264.098943,287.921805 264.103683,290.648805 267.018248,292.331086 C269.932813,294.011789 274.648248,294.005477 277.534378,292.331086 C280.429987,290.648805 280.41419,287.926539 277.499625,286.245836" id="Fill-75" fill="#536D79"></path>
                    <path d="M272.258146,289.283569 L272.258146,205.991709" id="Stroke-78" stroke="#536D79" stroke-width="4"></path>
                    <path d="M39.9500797,412.247123 L39.9500797,328.955264" id="Stroke-81" stroke="#536D79" stroke-width="4"></path>
                    <path d="M279.846126,192.227777 L279.763981,220.992577 C275.667793,223.370811 269.012474,223.366077 264.895749,220.992577 L264.957445,199.388677 L264.896697,220.99305 L235.657842,204.129206 C233.586842,202.934566 232.548972,201.364331 232.553712,199.797253 L232.656393,163.841253 C232.651654,165.408331 233.687943,166.978566 235.760523,168.173206 L264.997799,185.03705 L264.957445,199.388677 L264.99843,185.036577 C269.113469,187.410015 275.768552,187.414811 279.866346,185.03676 L308.906158,168.177467 C310.940825,166.99703 311.958158,165.452045 311.961317,163.905483 L311.860216,199.863061 C311.855477,201.408045 310.838143,202.95303 308.803477,204.133467 L279.765245,220.992577 L279.846126,192.227777 Z" id="Combined-Shape" fill="#536D79"></path>
                    <path d="M308.857977,159.573687 C312.973122,161.947187 313.003136,165.799391 308.906948,168.177625 L279.867136,185.036734 C275.769368,187.414969 269.114049,187.410234 264.998904,185.036734 L235.760049,168.172891 C231.644904,165.799391 231.61489,161.947187 235.712658,159.568953 L264.75089,142.709844 C268.848658,140.331609 275.503977,140.336344 279.620701,142.709844 L308.857977,159.573687 Z" id="Fill-88" fill="#536D79"></path>
                    <path d="M132.220791,239.998883 C129.306226,238.31818 126.938241,239.676945 126.928762,243.011523 C126.919284,246.357148 129.271472,250.428711 132.186038,252.109414 C135.100603,253.790117 137.468588,252.442398 137.478067,249.096773 C137.487545,245.762195 135.135357,241.679586 132.220791,239.998883" id="Fill-91" fill="#536D79"></path>
                    <path d="M132.207364,246.33253 L47.4353783,294.640514" id="Stroke-94" stroke="#536D79" stroke-width="4"></path>
                    <path d="M480.985406,177.280723 C478.070841,175.60002 475.702855,176.947739 475.693377,180.293364 C475.683899,183.638989 478.036087,187.710552 480.950652,189.391255 C483.855739,191.067223 486.223725,189.717927 486.233203,186.372302 C486.242681,183.026677 483.890493,178.956692 480.985406,177.280723" id="Fill-98" fill="#536D79"></path>
                    <path d="M480.963764,183.602061 L396.191778,231.910045" id="Stroke-101" stroke="#536D79" stroke-width="4"></path>
                    <path d="M76.4750319,286.108381 L47.4352203,302.967491 L47.3341188,338.923491 L76.3723507,322.064381 C78.4070174,320.883944 79.4243507,319.338959 79.4290899,317.793975 L79.5301913,281.836397 C79.5270319,283.382959 78.5096986,284.927944 76.4750319,286.108381" id="Fill-102" fill="#536D79"></path>
                    <path d="M3.32923913,286.10412 C1.25665942,284.90948 0.220369565,283.339245 0.225108696,281.772167 L0.122427536,317.728167 C0.117688406,319.295245 1.15555797,320.86548 3.22655797,322.06012 L32.465413,338.923964 L32.5665145,302.967964 L3.32923913,286.10412 Z" id="Fill-104" fill="#536D79"></path>
                    <path d="M47.4353783,302.967491 L47.3326971,338.923491 C43.2365087,341.301725 36.5811899,341.296991 32.4644652,338.923491 L32.5671464,302.967491 C36.6822913,305.340991 43.3376101,305.345725 47.4353783,302.967491" id="Fill-106" fill="#536D79"></path>
                    <path d="M76.4266928,277.504759 C80.5418377,279.878259 80.5718522,283.730463 76.4756638,286.108697 L47.4358522,302.967806 C43.3380841,305.346041 36.6827652,305.341306 32.5676203,302.967806 L3.32876522,286.103963 C-0.78637971,283.730463 -0.816394203,279.878259 3.28137391,277.500025 L32.3196058,260.640916 C36.4173739,258.262681 43.0726928,258.267416 47.1894174,260.640916 L76.4266928,277.504759 Z" id="Fill-108" fill="#536D79"></path>
                    <path d="M63.4168319,305.915586 C60.5022667,307.596289 58.1500783,311.667852 58.1595565,315.013477 C58.1690348,318.348055 60.5370203,319.70682 63.4515855,318.026117 C66.3661507,316.345414 68.7183391,312.262805 68.7088609,308.928227 C68.6993826,305.582602 66.3313971,304.234883 63.4168319,305.915586" id="Fill-111" fill="#536D79"></path>
                    <path d="M63.4321551,311.966275 L148.204141,360.274259" id="Stroke-114" stroke="#536D79" stroke-width="4"></path>
                    <path d="M163.896033,369.97168 L163.80362,402.33208 C159.707432,404.710314 153.052113,404.70558 148.935388,402.33208 L119.697639,385.468709 C117.626639,384.274069 116.58877,382.703834 116.593509,381.136756 L116.69619,345.180756 C116.691451,346.747834 117.727741,348.318069 119.80032,349.512709 L149.037596,366.376553 L149.007352,377.13258 L149.03807,366.37608 C153.153162,368.749549 159.808362,368.754314 163.906143,366.376172 L192.945955,349.51697 C194.980622,348.336533 195.997955,346.791548 196.001114,345.244986 L195.900013,381.202564 C195.895274,382.747548 194.877941,384.292533 192.843274,385.47297 L163.805042,402.33208 L163.896033,369.97168 Z" id="Combined-Shape" fill="#536D79"></path>
                    <path d="M192.897616,340.913191 C197.012761,343.286691 197.042775,347.138894 192.946587,349.517128 L163.906775,366.376238 C159.809007,368.754472 153.153688,368.749738 149.038543,366.376238 L119.799688,349.512394 C115.684543,347.138894 115.654529,343.286691 119.752297,340.908456 L148.790529,324.049347 C152.888297,321.671113 159.543616,321.675847 163.660341,324.049347 L192.897616,340.913191 Z" id="Fill-124" fill="#536D79"></path>
                    <path d="M396.181323,239.964953 L396.088939,272.315253 C391.992751,274.693488 385.337432,274.688753 381.220707,272.315253 L351.982958,255.451725 C349.911958,254.257084 348.874088,252.68685 348.878828,251.119772 L348.981509,215.163772 C348.97677,216.73085 350.013059,218.301084 352.085639,219.495725 L381.322914,236.359569 L381.292642,247.125853 L381.323388,236.359253 C385.43848,238.732722 392.09368,238.737487 396.191462,236.359345 L425.231274,219.499986 C427.265941,218.319548 428.283274,216.774564 428.286433,215.228002 L428.185332,251.18558 C428.180593,252.730564 427.163259,254.275548 425.128593,255.455986 L396.090361,272.315095 L396.181323,239.964953 Z" id="Combined-Shape" fill="#536D79"></path>
                    <path d="M425.182935,210.896364 C429.29808,213.269864 429.328094,217.122067 425.231906,219.500302 L396.192094,236.359411 C392.094326,238.737645 385.439007,238.732911 381.323862,236.359411 L352.085007,219.495567 C347.969862,217.122067 347.939848,213.269864 352.037616,210.89163 L381.075848,194.03252 C385.173616,191.654286 391.828935,191.65902 395.945659,194.03252 L425.182935,210.896364 Z" id="Fill-133" fill="#536D79"></path>
                    <path d="M504.812806,411.809352 L504.812806,328.517492" id="Stroke-174" stroke="#536D79" stroke-width="4"></path>
                    <path d="M277.499625,156.770148 C274.585059,155.089445 269.880683,155.089445 266.983494,156.770148 C264.087886,158.450852 264.103683,161.173117 267.018248,162.855398 C269.932813,164.536102 274.63877,164.536102 277.534378,162.855398 C280.429987,161.173117 280.41419,158.450852 277.499625,156.770148" id="Fill-176" fill="#536D79"></path>
                    <path d="M272.258146,159.814509 L272.258146,76.52265" id="Stroke-178" stroke="#536D79" stroke-width="4"></path>
                    <path d="M512.534113,306.563091 L512.4417,338.923491 C508.345512,341.301725 501.690193,341.296991 497.573468,338.923491 L468.335719,322.06012 C466.264719,320.86548 465.226849,319.295245 465.231588,317.728167 L465.33427,281.772167 C465.32953,283.339245 466.36582,284.90948 468.4384,286.10412 L497.675675,302.967964 L497.645431,313.723991 L497.676149,302.967491 C501.791241,305.34096 508.446442,305.345725 512.544223,302.967582 L541.584035,286.108381 C543.618701,284.927944 544.636035,283.382959 544.639194,281.836397 L544.538093,317.793975 C544.533354,319.338959 543.51602,320.883944 541.481354,322.064381 L512.443122,338.923491 L512.534113,306.563091 Z" id="Combined-Shape" fill="#536D79"></path>
                    <path d="M541.535696,277.504759 C545.650841,279.878259 545.680855,283.730463 541.584667,286.108697 L512.544855,302.967806 C508.447087,305.346041 501.791768,305.341306 497.676623,302.967806 L468.437768,286.103963 C464.322623,283.730463 464.292609,279.878259 468.390377,277.500025 L497.428609,260.640916 C501.526377,258.262681 508.181696,258.267416 512.29842,260.640916 L541.535696,277.504759 Z" id="Fill-186" fill="#536D79"></path>
                    <path d="M308.906316,27.2485375 L279.866504,44.1076469 L279.866504,44.1076469 C275.768736,46.4858812 269.113417,46.4811469 264.998272,44.1076469 L235.760997,27.2438031 C233.688417,26.0491625 232.652128,24.4789281 232.656867,22.91185 L232.554186,58.86785 C232.549446,60.4365062 233.585736,62.0051625 235.658316,63.2013812 L264.895591,80.0636469 C269.012316,82.4371469 275.667635,82.4418812 279.763823,80.0636469 L308.805214,63.2045375 C310.838301,62.0241 311.855635,60.4791156 311.860374,58.9341312 L311.961475,22.9765531 C311.956736,24.5231156 310.940983,26.0681 308.906316,27.2485375" id="Fill-189" fill="#536D79"></path>
                    <mask id="mask-2" fill="white">
                        <use xlink:href="#path-1"></use>
                    </mask>
                    <g id="Clip-192"></g>
                    <path d="M308.857977,18.6449156 C312.973122,21.0184156 313.003136,24.8706187 308.906948,27.2488531 L279.867136,44.1079625 C275.769368,46.4861969 269.114049,46.4814625 264.998904,44.1079625 L235.760049,27.2441187 C231.644904,24.8706187 231.61489,21.0184156 235.712658,18.6401812 L264.75089,1.78107187 C268.848658,-0.5971625 275.503977,-0.592428125 279.620701,1.78107187 L308.857977,18.6449156 Z" id="Fill-191" fill="#536D79" mask="url(#mask-2)"></path>
                </g>
            </g>
        </g>
    </g>
</svg>