<svg width="1770" height="712" viewBox="0 0 1770 712" xmlns="http://www.w3.org/2000/svg" xmlns:xlink="http://www.w3.org/1999/xlink"><title>Artboard</title><defs><rect id="a" x="1214" y="37" width="589" height="589" rx="47"/></defs><g fill="none" fill-rule="evenodd"><g opacity=".1" transform="translate(-76 180)" stroke="#FFF" stroke-width="2"><rect opacity=".88" transform="rotate(-37 1505.957 668.807)" x="1327.626" y="490.476" width="356.662" height="356.662" rx="20"/><rect transform="rotate(-37 1525.957 128.807)" x="1462.548" y="65.398" width="126.818" height="126.818" rx="20"/><rect transform="rotate(-37 1165.957 88.807)" x="1102.548" y="25.398" width="126.818" height="126.818" rx="20"/><rect opacity=".568" transform="rotate(-37 995.956 458.807)" x="904.99" y="367.84" width="181.933" height="181.933" rx="20"/><rect transform="rotate(-37 915.957 408.807)" x="868.117" y="360.967" width="95.68" height="95.68" rx="20"/><rect opacity=".474" transform="rotate(-37 895.957 158.807)" x="848.117" y="110.967" width="95.68" height="95.68" rx="20"/><rect opacity=".824" transform="rotate(-37 215.956 108.807)" x="178.766" y="71.616" width="74.381" height="74.381" rx="20"/><rect opacity=".507" transform="rotate(-37 205.957 168.807)" x="158.117" y="120.967" width="95.68" height="95.68" rx="20"/><rect opacity=".507" transform="rotate(-37 67.957 359.807)" x="20.117" y="311.967" width="95.68" height="95.68" rx="20"/><rect opacity=".507" transform="rotate(-37 295.957 417.807)" x="248.117" y="369.967" width="95.68" height="95.68" rx="20"/><rect opacity=".556" transform="rotate(-37 675.957 258.807)" x="612.33" y="195.18" width="127.254" height="127.254" rx="16"/><rect opacity=".422" transform="rotate(-37 1020.958 186.807)" x="986.863" y="152.713" width="68.189" height="68.189" rx="10"/><rect opacity=".422" transform="rotate(-37 1010.957 256.807)" x="967.861" y="213.711" width="86.192" height="86.192" rx="10"/><rect transform="rotate(-37 1635.957 283.807)" x="1592.861" y="240.711" width="86.192" height="86.192" rx="10"/><rect opacity=".782" transform="rotate(-37 1704.957 295.807)" x="1661.861" y="252.711" width="86.192" height="86.192" rx="10"/><rect opacity=".507" transform="rotate(-37 1675.956 79.807)" x="1631.172" y="35.022" width="89.569" height="89.569" rx="10"/></g><use fill="#FFF" fill-rule="nonzero" opacity=".03" style="mix-blend-mode:overlay" transform="rotate(45 1508.5 331.5)" xlink:href="#a"/><rect fill="#FFF" fill-rule="nonzero" opacity=".05" style="mix-blend-mode:overlay" transform="rotate(45 603.5 605)" x="347.174" y="348.674" width="512.652" height="512.652" rx="47"/><rect fill="#FFF" fill-rule="nonzero" opacity=".103" style="mix-blend-mode:overlay" transform="rotate(45 424.5 232.5)" x="202" y="10" width="445" height="445" rx="47"/></g></svg>